<svg width="20" height="20" viewBox="0 0 20 20" fill="none" xmlns="http://www.w3.org/2000/svg">
<path d="M2 18V2" stroke="white" stroke-width="1.5" stroke-linecap="round" stroke-linejoin="round"/>
<path d="M18 2V18" stroke="white" stroke-width="1.5" stroke-linecap="round" stroke-linejoin="round"/>
<path d="M6.26666 2H13.7333V8.4H6.26666V2Z" stroke="white" stroke-width="1.5" stroke-linecap="round" stroke-linejoin="round"/>
<path d="M6.26666 11.6H13.7333V18H6.26666V11.6Z" stroke="white" stroke-width="1.5" stroke-linecap="round" stroke-linejoin="round"/>
<path d="M4.39999 3.6C4.39999 3.65274 4.38435 3.70429 4.35505 3.74815C4.32575 3.792 4.2841 3.82618 4.23538 3.84636C4.18665 3.86655 4.13303 3.87183 4.0813 3.86154C4.02958 3.85125 3.98206 3.82585 3.94477 3.78856C3.90747 3.75126 3.88207 3.70375 3.87179 3.65202C3.8615 3.60029 3.86678 3.54667 3.88696 3.49795C3.90714 3.44922 3.94132 3.40757 3.98518 3.37827C4.02903 3.34897 4.08059 3.33333 4.13333 3.33333C4.20405 3.33333 4.27188 3.36142 4.32189 3.41143C4.3719 3.46144 4.39999 3.52927 4.39999 3.6Z" stroke="white" stroke-width="1.5" stroke-linecap="round" stroke-linejoin="round"/>
<path d="M4.39999 7.86667C4.39999 7.91941 4.38435 7.97097 4.35505 8.01482C4.32575 8.05867 4.2841 8.09285 4.23538 8.11303C4.18665 8.13322 4.13303 8.1385 4.0813 8.12821C4.02958 8.11792 3.98206 8.09252 3.94477 8.05523C3.90747 8.01794 3.88207 7.97042 3.87179 7.91869C3.8615 7.86696 3.86678 7.81335 3.88696 7.76462C3.90714 7.71589 3.94132 7.67424 3.98518 7.64494C4.02903 7.61564 4.08059 7.6 4.13333 7.6C4.20405 7.6 4.27188 7.6281 4.32189 7.67811C4.3719 7.72811 4.39999 7.79594 4.39999 7.86667Z" stroke="white" stroke-width="1.5" stroke-linecap="round" stroke-linejoin="round"/>
<path d="M4.39999 12.1333C4.39999 12.1861 4.38435 12.2376 4.35505 12.2815C4.32575 12.3253 4.2841 12.3595 4.23538 12.3797C4.18665 12.3999 4.13303 12.4052 4.0813 12.3949C4.02958 12.3846 3.98206 12.3592 3.94477 12.3219C3.90747 12.2846 3.88207 12.2371 3.87179 12.1854C3.8615 12.1336 3.86678 12.08 3.88696 12.0313C3.90714 11.9826 3.94132 11.9409 3.98518 11.9116C4.02903 11.8823 4.08059 11.8667 4.13333 11.8667C4.20405 11.8667 4.27188 11.8948 4.32189 11.9448C4.3719 11.9948 4.39999 12.0626 4.39999 12.1333Z" stroke="white" stroke-width="1.5" stroke-linecap="round" stroke-linejoin="round"/>
<path d="M4.39999 16.4C4.39999 16.4527 4.38435 16.5043 4.35505 16.5482C4.32575 16.592 4.2841 16.6262 4.23538 16.6464C4.18665 16.6665 4.13303 16.6718 4.0813 16.6615C4.02958 16.6513 3.98206 16.6259 3.94477 16.5886C3.90747 16.5513 3.88207 16.5037 3.87179 16.452C3.8615 16.4003 3.86678 16.3467 3.88696 16.2979C3.90714 16.2492 3.94132 16.2076 3.98518 16.1783C4.02903 16.149 4.08059 16.1333 4.13333 16.1333C4.20405 16.1333 4.27188 16.1614 4.32189 16.2114C4.3719 16.2614 4.39999 16.3293 4.39999 16.4Z" stroke="white" stroke-width="1.5" stroke-linecap="round" stroke-linejoin="round"/>
<path d="M16.1333 3.6C16.1333 3.65274 16.1177 3.70429 16.0884 3.74815C16.0591 3.792 16.0174 3.82618 15.9687 3.84636C15.92 3.86655 15.8664 3.87183 15.8146 3.86154C15.7629 3.85125 15.7154 3.82585 15.6781 3.78856C15.6408 3.75126 15.6154 3.70375 15.6051 3.65202C15.5948 3.60029 15.6001 3.54667 15.6203 3.49795C15.6405 3.44922 15.6747 3.40757 15.7185 3.37827C15.7624 3.34897 15.8139 3.33333 15.8667 3.33333C15.9374 3.33333 16.0052 3.36142 16.0552 3.41143C16.1052 3.46144 16.1333 3.52927 16.1333 3.6Z" stroke="white" stroke-width="1.5" stroke-linecap="round" stroke-linejoin="round"/>
<path d="M16.1333 7.86667C16.1333 7.91941 16.1177 7.97097 16.0884 8.01482C16.0591 8.05867 16.0174 8.09285 15.9687 8.11303C15.92 8.13322 15.8664 8.1385 15.8146 8.12821C15.7629 8.11792 15.7154 8.09252 15.6781 8.05523C15.6408 8.01794 15.6154 7.97042 15.6051 7.91869C15.5948 7.86696 15.6001 7.81335 15.6203 7.76462C15.6405 7.71589 15.6747 7.67424 15.7185 7.64494C15.7624 7.61564 15.8139 7.6 15.8667 7.6C15.9374 7.6 16.0052 7.6281 16.0552 7.67811C16.1052 7.72811 16.1333 7.79594 16.1333 7.86667Z" stroke="white" stroke-width="1.5" stroke-linecap="round" stroke-linejoin="round"/>
<path d="M16.1333 12.1333C16.1333 12.1861 16.1177 12.2376 16.0884 12.2815C16.0591 12.3253 16.0174 12.3595 15.9687 12.3797C15.92 12.3999 15.8664 12.4052 15.8146 12.3949C15.7629 12.3846 15.7154 12.3592 15.6781 12.3219C15.6408 12.2846 15.6154 12.2371 15.6051 12.1854C15.5948 12.1336 15.6001 12.08 15.6203 12.0313C15.6405 11.9826 15.6747 11.9409 15.7185 11.9116C15.7624 11.8823 15.8139 11.8667 15.8667 11.8667C15.9374 11.8667 16.0052 11.8948 16.0552 11.9448C16.1052 11.9948 16.1333 12.0626 16.1333 12.1333Z" stroke="white" stroke-width="1.5" stroke-linecap="round" stroke-linejoin="round"/>
<path d="M16.1333 16.4C16.1333 16.4527 16.1177 16.5043 16.0884 16.5482C16.0591 16.592 16.0174 16.6262 15.9687 16.6464C15.92 16.6665 15.8664 16.6718 15.8146 16.6615C15.7629 16.6513 15.7154 16.6259 15.6781 16.5886C15.6408 16.5513 15.6154 16.5037 15.6051 16.452C15.5948 16.4003 15.6001 16.3467 15.6203 16.2979C15.6405 16.2492 15.6747 16.2076 15.7185 16.1783C15.7624 16.149 15.8139 16.1333 15.8667 16.1333C15.9374 16.1333 16.0052 16.1614 16.0552 16.2114C16.1052 16.2614 16.1333 16.3293 16.1333 16.4Z" stroke="white" stroke-width="1.5" stroke-linecap="round" stroke-linejoin="round"/>
</svg>
