<svg width="20" height="20" viewBox="0 0 20 20" fill="none" xmlns="http://www.w3.org/2000/svg">
<path d="M2.38463 3.59999H17.6154V14.7692H2.38463V3.59999Z" stroke="white" stroke-width="1.5" stroke-linecap="round" stroke-linejoin="round"/>
<path d="M12.5385 3.59999V14.7692" stroke="white" stroke-width="1.5" stroke-linecap="round" stroke-linejoin="round"/>
<path d="M14.5693 9.69231H15.5846" stroke="white" stroke-width="1.5" stroke-linecap="round" stroke-linejoin="round"/>
<path d="M14.5693 11.7231H15.5846" stroke="white" stroke-width="1.5" stroke-linecap="round" stroke-linejoin="round"/>
<path d="M15.0769 6.89999C15.1271 6.89999 15.1762 6.91488 15.218 6.94277C15.2597 6.97067 15.2922 7.01031 15.3115 7.0567C15.3307 7.10308 15.3357 7.15412 15.3259 7.20336C15.3161 7.25261 15.2919 7.29784 15.2564 7.33334C15.2209 7.36884 15.1757 7.39301 15.1265 7.40281C15.0772 7.4126 15.0262 7.40758 14.9798 7.38836C14.9334 7.36915 14.8938 7.33662 14.8659 7.29487C14.838 7.25313 14.8231 7.20405 14.8231 7.15384C14.8231 7.08652 14.8498 7.02195 14.8974 6.97434C14.945 6.92674 15.0096 6.89999 15.0769 6.89999" stroke="white" stroke-width="1.5" stroke-linecap="round" stroke-linejoin="round"/>
<path d="M3.4 16.8L5.43077 14.7692" stroke="white" stroke-width="1.5" stroke-linecap="round" stroke-linejoin="round"/>
<path d="M16.6 16.8L14.5693 14.7692" stroke="white" stroke-width="1.5" stroke-linecap="round" stroke-linejoin="round"/>
</svg>
